<svg width="168" height="20" viewBox="0 0 168 20" fill="none" xmlns="http://www.w3.org/2000/svg">
<path d="M22.675 0H1.325C0.593 0 0 0.494167 0 1.10417V18.8967C0 19.5058 0.593 20 1.325 20H12.82V12.255H9.692V9.23667H12.82V7.01083C12.82 4.4275 14.713 3.02083 17.479 3.02083C18.804 3.02083 19.942 3.10333 20.274 3.14V5.84L18.356 5.84083C16.852 5.84083 16.561 6.43667 16.561 7.31V9.2375H20.148L19.681 12.2558H16.561V20H22.677C23.407 20 24 19.5058 24 18.8958V1.10417C24 0.494167 23.407 0 22.675 0Z" fill="white"/>
<path fill-rule="evenodd" clip-rule="evenodd" d="M156 0.370193C152.741 0.370193 152.333 0.381644 151.053 0.429083C146.695 0.592665 144.273 2.57037 144.073 6.13808C144.014 7.18583 144 7.51953 144 10.1851C144 12.8507 144.014 13.1852 144.072 14.2321C144.272 17.7966 146.69 19.7775 151.052 19.9411C152.333 19.9885 152.741 20 156 20C159.259 20 159.668 19.9885 160.948 19.9411C165.302 19.7775 167.73 17.7998 167.927 14.2321C167.986 13.1852 168 12.8507 168 10.1851C168 7.51953 167.986 7.18583 167.928 6.1389C167.732 2.57773 165.311 0.593483 160.949 0.429901C159.668 0.381644 159.259 0.370193 156 0.370193ZM156 2.13932C159.204 2.13932 159.584 2.14914 160.85 2.19658C164.102 2.31763 165.621 3.57966 165.769 6.21987C165.827 7.25452 165.838 7.56533 165.838 10.1859C165.838 12.8073 165.826 13.1173 165.769 14.1519C165.62 16.7897 164.105 18.0542 160.85 18.1752C159.584 18.2227 159.206 18.2325 156 18.2325C152.796 18.2325 152.416 18.2227 151.151 18.1752C147.891 18.0534 146.38 16.7856 146.232 14.1511C146.174 13.1165 146.162 12.8065 146.162 10.1851C146.162 7.56451 146.175 7.25452 146.232 6.21905C146.381 3.57966 147.896 2.31681 151.151 2.19576C152.417 2.14914 152.796 2.13932 156 2.13932ZM149.838 10.1851C149.838 7.40175 152.597 5.14514 156 5.14514C159.403 5.14514 162.162 7.40175 162.162 10.1851C162.162 12.9693 159.403 15.2259 156 15.2259C152.597 15.2259 149.838 12.9684 149.838 10.1851ZM156 13.4567C153.791 13.4567 152 11.9927 152 10.1851C152 8.37834 153.791 6.91347 156 6.91347C158.209 6.91347 160 8.37834 160 10.1851C160 11.9927 158.209 13.4567 156 13.4567ZM160.965 4.9464C160.965 4.29616 161.61 3.76861 162.406 3.76861C163.201 3.76861 163.845 4.29616 163.845 4.9464C163.845 5.59664 163.201 6.12419 162.406 6.12419C161.61 6.12419 160.965 5.59664 160.965 4.9464Z" fill="white"/>
<path d="M108 0C101.373 0 96 4.47667 96 10C96 14.2367 99.163 17.855 103.627 19.3117C103.522 18.5208 103.427 17.3075 103.669 16.4442C103.887 15.6633 105.076 11.4733 105.076 11.4733C105.076 11.4733 104.717 10.8742 104.717 9.98833C104.717 8.59833 105.684 7.56 106.888 7.56C107.911 7.56 108.406 8.20083 108.406 8.96833C108.406 9.82583 107.751 11.1083 107.412 12.2975C107.129 13.2925 108.011 14.105 109.189 14.105C111.322 14.105 112.961 12.2308 112.961 9.52583C112.961 7.13167 110.897 5.4575 107.949 5.4575C104.535 5.4575 102.531 7.59167 102.531 9.79667C102.531 10.6558 102.928 11.5783 103.424 12.0783C103.522 12.1775 103.536 12.265 103.507 12.3658L103.174 13.4992C103.121 13.6825 103 13.7217 102.772 13.6333C101.273 13.0517 100.336 11.2258 100.336 9.75917C100.336 6.605 103.086 3.7075 108.265 3.7075C112.428 3.7075 115.663 6.18 115.663 9.48333C115.663 12.93 113.056 15.7033 109.436 15.7033C108.22 15.7033 107.077 15.1775 106.686 14.555L105.938 16.9325C105.667 17.8017 104.936 18.8908 104.446 19.5542C105.57 19.8433 106.763 20 108 20C114.627 20 120 15.5225 120 10C120 4.47667 114.627 0 108 0Z" fill="white"/>
<path d="M72 3.24933C71.117 3.6312 70.168 3.88838 69.172 4.00431C70.189 3.41104 70.97 2.47098 71.337 1.3507C70.386 1.90012 69.332 2.29953 68.21 2.51482C67.313 1.58255 66.032 1 64.616 1C61.437 1 59.101 3.88936 59.819 6.88879C55.728 6.68909 52.1 4.77974 49.671 1.87772C48.381 4.03353 49.002 6.85372 51.194 8.28184C50.388 8.25651 49.628 8.04122 48.965 7.68176C48.911 9.90382 50.546 11.9827 52.914 12.4454C52.221 12.6285 51.462 12.6714 50.69 12.5272C51.316 14.4327 53.134 15.8189 55.29 15.8579C53.22 17.4389 50.612 18.1452 48 17.8452C50.179 19.2061 52.768 20 55.548 20C64.69 20 69.855 12.4785 69.543 5.73247C70.505 5.05542 71.34 4.21083 72 3.24933Z" fill="white"/>
</svg>
